<?xml version="1.0" encoding="UTF-8"?><svg id="Layer_2" xmlns="http://www.w3.org/2000/svg" viewBox="0 0 205.5 72.2"><defs><style>.cls-1{fill:#e52629;}.cls-1,.cls-2{stroke-width:0px;}.cls-2{fill:#fff;}</style></defs><g id="Layer_2-2"><path class="cls-2" d="M25.11,69l1.31-.3c.44,1.35,2.06,2.36,4.86,2.36,2.98,0,4.36-.69,4.36-1.98,0-1.65-1.88-1.83-4.5-2.15-2.68-.32-5.38-.71-5.38-3.2,0-1.91,1.79-3.1,5.32-3.1s5.19,1.38,5.68,2.68l-1.29.45c-.44-1.05-1.79-1.94-4.39-1.94s-3.95.69-3.95,1.8c0,1.5,1.7,1.73,4.15,2.03,2.83.35,5.74.66,5.74,3.31,0,1.89-1.62,3.25-5.71,3.25-3.82,0-5.64-1.44-6.19-3.2Z"/><path class="cls-2" d="M63.35,67.09l-5.76-6.24h1.65l4.83,5.16,4.86-5.16h1.61l-5.79,6.24v4.89h-1.4v-4.89Z"/><path class="cls-2" d="M90.93,69l1.31-.3c.44,1.35,2.06,2.36,4.86,2.36,2.98,0,4.36-.69,4.36-1.98,0-1.65-1.88-1.83-4.5-2.15-2.68-.32-5.38-.71-5.38-3.2,0-1.91,1.79-3.1,5.32-3.1s5.19,1.38,5.68,2.68l-1.29.45c-.44-1.05-1.79-1.94-4.39-1.94s-3.95.69-3.95,1.8c0,1.5,1.7,1.73,4.15,2.03,2.83.35,5.74.66,5.74,3.31,0,1.89-1.62,3.25-5.71,3.25-3.82,0-5.64-1.44-6.19-3.2Z"/><path class="cls-2" d="M129.07,62.1h-5.11l-.02-1.25h11.65v1.25h-5.1v9.88h-1.44l.02-9.88Z"/><path class="cls-2" d="M157.83,60.85h9.92v1.23h-8.53v3.49h7.11v1.19h-7.11v4.01h8.71v1.2h-10.1v-11.13Z"/><path class="cls-2" d="M190.34,60.85h1.97l5.62,9.73,5.67-9.73h1.89v11.13h-1.4v-9.56l-5.55,9.56h-1.37l-5.52-9.59v9.59h-1.32v-11.13Z"/><polygon class="cls-2" points="83.3 0 66.35 36.24 49.43 0 35.36 0 57.7 48.83 74.89 48.83 97.29 0 83.3 0"/><polygon class="cls-2" points="190.58 0 174.08 33.5 173.79 33.5 156.64 0 143.07 0 143.07 42.79 123.5 0 106.31 0 83.9 48.83 97.89 48.83 102.25 39.53 123.83 39.53 119.02 28.16 107.57 28.16 114.85 12.59 131.77 48.83 143.07 48.83 145.83 48.83 155.46 48.83 155.46 23.06 167.32 48.83 179.81 48.83 191.75 23.13 191.75 48.83 204.62 48.83 204.62 0 190.58 0"/><polygon class="cls-1" points="26.38 0 0 0 5.72 12.51 32.1 12.51 26.38 0"/><polygon class="cls-1" points="34.63 18.05 8.26 18.05 14.01 30.62 40.38 30.62 34.63 18.05"/><polygon class="cls-1" points="16.54 36.16 22.33 48.83 48.71 48.83 42.92 36.16 16.54 36.16"/></g></svg>